<svg xmlns="http://www.w3.org/2000/svg" viewBox="0 0 1920 1080"><defs><style>.cls-1{fill:#fff;}</style></defs><title>explore</title><g id="container"><rect class="cls-1" x="58.5" y="197" width="1791" height="1759"/><path d="M1849,197.5v1758H59V197.5H1849m1-1H58v1760H1850V196.5Z"/></g><g id="Content"><rect class="cls-1" x="63.5" y="41" width="322" height="122"/><path d="M385,41.5v121H64V41.5H385m1-1H63v123H386V40.5Z"/><g id="Explore"><path d="M157.8,345.71H60.06V198.18H157.8v25.46H90.94v35.58H154v23.72H90.94v37.21H157.8Z"/><path d="M222,307.68l-20.55,38H170.07l34.36-54.59-34.15-55h33.63l19.74,37h.61l19.43-37H276.2L242,290.3l33.94,55.41H243.48l-20.86-38Z"/><path d="M397,290.91c0,34.87-17,56.13-44.37,56.13-15.95,0-28.12-7.36-34.05-19.73h-.61V381.5H288.06V236.11h29.45v18.81h.61c5.83-12.47,18.51-20.14,33.95-20.14C379.88,234.78,397,255.94,397,290.91Zm-30.57,0c0-19.42-9.61-32.1-24.33-32.1-14.52,0-24.24,12.88-24.24,32.1,0,19.43,9.61,32.11,24.24,32.11S366.38,310.44,366.38,290.91Z"/><path d="M413,198.18h29.86V345.71H413Z"/><path d="M459,290.81c0-35.07,21.17-56.64,54.29-56.64s54.29,21.47,54.29,56.64c0,35.68-20.85,56.85-54.29,56.85S459,326.39,459,290.81Zm78.22.1c0-21.37-9-33.94-23.93-33.94s-24,12.68-24,33.94c0,21.58,9,33.95,24,33.95S537.23,312.49,537.23,290.91Z"/><path d="M582.93,236.11h28.83v19.73h.62c3.78-13.6,13.19-21.06,26.07-21.06a27.35,27.35,0,0,1,8.49,1.13v26.27a30.83,30.83,0,0,0-10.84-1.74c-14.73,0-23.31,9-23.31,24.44v60.83H582.93Z"/><path d="M755.52,312.18c-3.27,21.37-23.11,35.48-50,35.48-33.53,0-54-21.37-54-56.24s20.55-57.25,52.86-57.25c31.79,0,52,21.16,52,54.49v9.1H680.88v1.84c0,15.44,10.12,26,25.15,26,10.74,0,19.33-5.11,22.09-13.39Zm-74.33-32.72h46.52c-.62-14-9.82-23.21-23-23.21C691.72,256.25,682.21,265.76,681.19,279.46Z"/></g><path d="M593.75,1072.05V852.63a2.81,2.81,0,0,1,2.81-2.81h95.13c42.26,0,68.77,21.68,68.77,56.14a49.65,49.65,0,0,1-42.26,48.82V956c30.57,2.34,53,24.64,53,54.43,0,39.61-29.78,64.41-77.82,64.41H596.56A2.81,2.81,0,0,1,593.75,1072.05Zm47.1-131.47a2.81,2.81,0,0,0,2.81,2.81h31c25.11,0,39.46-11.07,39.46-30.1,0-18.09-12.64-28.38-34.63-28.38H643.66a2.81,2.81,0,0,0-2.81,2.81Zm40.55,99.19c27.13,0,41.79-11.54,41.79-33.06,0-21.06-15.13-32.28-42.89-32.28H643.66a2.8,2.8,0,0,0-2.81,2.8V1037a2.81,2.81,0,0,0,2.81,2.81Z"/><path d="M943.3,1023.71a2.8,2.8,0,0,1,2.75,3.37c-6.5,30.7-36.06,50.74-75.64,50.74-51.15,0-82.34-32.59-82.34-85.77,0-53.34,31.34-87.33,80.62-87.33,48.5,0,79.38,32.28,79.38,83.12v11.07a2.81,2.81,0,0,1-2.81,2.81H835.63a2.8,2.8,0,0,0-2.81,2.8h0c0,23.55,15.44,39.62,38.37,39.62,15.61,0,28.24-7.09,33-18.7a2.79,2.79,0,0,1,2.58-1.73ZM836.42,973.8h64.8a2.81,2.81,0,0,0,2.8-3.08c-2.09-19.62-15.73-32.32-34.86-32.32-18.79,0-32.8,13.05-35.53,32.23A2.81,2.81,0,0,0,836.42,973.8Z"/><path d="M1038.52,1072.05V852.63a2.81,2.81,0,0,1,2.81-2.81h95.13c42.26,0,68.77,21.68,68.77,56.14A49.65,49.65,0,0,1,1163,954.78V956c30.57,2.34,53,24.64,53,54.43,0,39.61-29.78,64.41-77.81,64.41h-96.85A2.81,2.81,0,0,1,1038.52,1072.05Zm47.1-131.47a2.81,2.81,0,0,0,2.81,2.81h31c25.11,0,39.46-11.07,39.46-30.1,0-18.09-12.64-28.38-34.62-28.38h-35.87a2.81,2.81,0,0,0-2.81,2.81Zm40.55,99.19c27.13,0,41.79-11.54,41.79-33.06,0-21.06-15.13-32.28-42.88-32.28h-36.65a2.8,2.8,0,0,0-2.81,2.8V1037a2.81,2.81,0,0,0,2.81,2.81Z"/><path d="M1241.73,907.68h38.36a2.81,2.81,0,0,1,2.81,2.81v27.29h.93c5.77-20.74,20.12-32.13,39.77-32.13a46.63,46.63,0,0,1,10.85,1.12,2.78,2.78,0,0,1,2.09,2.71v34.11a2.79,2.79,0,0,1-3.48,2.72,54.17,54.17,0,0,0-13-1.51c-22.45,0-35.55,13.72-35.55,37.27v90a2.81,2.81,0,0,1-2.81,2.81h-39.92a2.81,2.81,0,0,1-2.81-2.81V910.49A2.81,2.81,0,0,1,1241.73,907.68Z"/><path d="M1344.34,1026.67c0-30.41,23.39-47.72,66.28-50.22l38.69-2.33a2.81,2.81,0,0,0,2.64-2.8V963c0-15.75-10.92-24.33-28.7-24.33-14.81,0-25.62,7.31-28.54,18.17A2.83,2.83,0,0,1,1392,959h-36.23a2.82,2.82,0,0,1-2.8-3.08c2.9-30.59,31.25-51.19,72.31-51.19,43,0,71.43,22.14,71.43,55.51v111.82a2.81,2.81,0,0,1-2.81,2.81h-38.36a2.81,2.81,0,0,1-2.81-2.81v-22.77h-.94c-9.2,17.47-29.78,28.07-51,28.07C1368.67,1077.35,1344.34,1056.61,1344.34,1026.67Zm107.61-13.1v-9a2.81,2.81,0,0,0-3-2.8l-31.48,2c-18.09,1.25-27.76,8.58-27.76,20.43,0,12.17,10.3,20.12,26,20.12C1435.89,1044.29,1452,1031.5,1452,1013.57Z"/><path d="M1618.68,1074.86h-47.46a2.81,2.81,0,0,1-2.65-1.89L1512.65,911.4a2.81,2.81,0,0,1,2.66-3.72H1558a2.79,2.79,0,0,1,2.7,2.06L1595,1034.62h.93L1630,909.75a2.81,2.81,0,0,1,2.71-2.07h41.49a2.81,2.81,0,0,1,2.65,3.72L1621.34,1073A2.81,2.81,0,0,1,1618.68,1074.86Z"/><path d="M1838.3,1023.71a2.8,2.8,0,0,1,2.75,3.37c-6.5,30.7-36.06,50.74-75.64,50.74-51.15,0-82.34-32.59-82.34-85.77,0-53.34,31.34-87.33,80.62-87.33,48.5,0,79.38,32.28,79.38,83.12v11.07a2.8,2.8,0,0,1-2.8,2.81H1730.63a2.8,2.8,0,0,0-2.8,2.8h0c0,23.55,15.43,39.62,38.36,39.62,15.61,0,28.24-7.09,33-18.7a2.79,2.79,0,0,1,2.58-1.73ZM1731.42,973.8h64.8a2.8,2.8,0,0,0,2.8-3.08c-2.09-19.62-15.72-32.32-34.86-32.32-18.79,0-32.8,13.05-35.53,32.23A2.81,2.81,0,0,0,1731.42,973.8Z"/></g></svg>